<svg width="1024" height="1024" viewBox="0 0 1024 1024" fill="none" xmlns="http://www.w3.org/2000/svg">
  <defs>
    <linearGradient id="bg" x1="100" y1="72" x2="920" y2="952" gradientUnits="userSpaceOnUse">
      <stop stop-color="#7c3aed"/>
      <stop offset="0.5" stop-color="#2563eb"/>
      <stop offset="1" stop-color="#06b6d4"/>
    </linearGradient>
    <pattern id="grid" width="52" height="52" patternUnits="userSpaceOnUse">
      <path d="M52 0H0V52" stroke="#fff" stroke-opacity="0.07" stroke-width="1.5"/>
    </pattern>
  </defs>

  <rect x="72" y="72" width="880" height="880" rx="220" fill="url(#bg)"/>
  <rect x="72" y="72" width="880" height="880" rx="220" fill="url(#grid)"/>

  <!-- Pixel-art "DR" monogram -->
  <g fill="#f8fafc" transform="translate(112, 272) scale(80)">
    <!-- D: 5 wide -->
    <rect x="0" y="0" width="4" height="1"/>
    <rect x="0" y="1" width="1" height="3"/>
    <rect x="4" y="1" width="1" height="3"/>
    <rect x="0" y="4" width="4" height="1"/>
    <!-- R: 5 wide, offset by 6 -->
    <rect x="6" y="0" width="1" height="5"/>
    <rect x="7" y="0" width="3" height="1"/>
    <rect x="10" y="1" width="1" height="1"/>
    <rect x="7" y="2" width="3" height="1"/>
    <rect x="9" y="3" width="1" height="1"/>
    <rect x="10" y="4" width="1" height="1"/>
  </g>

  <!-- Pixel coin (diamond shape) -->
  <g fill="#fbbf24" transform="translate(730, 700) scale(32)">
    <rect x="2" y="0" width="1" height="1"/>
    <rect x="1" y="1" width="3" height="1"/>
    <rect x="0" y="2" width="5" height="1"/>
    <rect x="1" y="3" width="3" height="1"/>
    <rect x="2" y="4" width="1" height="1"/>
  </g>
  <g fill="#fde68a" transform="translate(730, 700) scale(32)">
    <rect x="2" y="1" width="1" height="1"/>
    <rect x="1" y="2" width="2" height="1"/>
  </g>

  <!-- Pixel sparkles -->
  <g fill="#fff">
    <rect x="248" y="216" width="28" height="28" fill-opacity="0.75"/>
    <rect x="192" y="560" width="18" height="18" fill-opacity="0.5"/>
    <rect x="840" y="560" width="22" height="22" fill-opacity="0.6"/>
    <rect x="300" y="780" width="14" height="14" fill-opacity="0.4"/>
  </g>

  <rect x="84" y="84" width="856" height="856" rx="210" stroke="#fff" stroke-opacity="0.14" stroke-width="6" fill="none"/>
</svg>
