<svg width="440" height="280" viewBox="0 0 440 280" fill="none" xmlns="http://www.w3.org/2000/svg">
  <defs>
    <linearGradient id="bg" x1="20" y1="18" x2="420" y2="262" gradientUnits="userSpaceOnUse">
      <stop stop-color="#0F172A"/>
      <stop offset="0.5" stop-color="#312E81"/>
      <stop offset="1" stop-color="#0EA5E9"/>
    </linearGradient>
    <linearGradient id="panel" x1="54" y1="48" x2="180" y2="202" gradientUnits="userSpaceOnUse">
      <stop stop-color="#8B5CF6"/>
      <stop offset="1" stop-color="#2563EB"/>
    </linearGradient>
    <linearGradient id="car" x1="118" y1="82" x2="118" y2="192" gradientUnits="userSpaceOnUse">
      <stop stop-color="#FB7185"/>
      <stop offset="1" stop-color="#E11D48"/>
    </linearGradient>
  </defs>

  <rect x="8" y="8" width="424" height="264" rx="36" fill="url(#bg)"/>
  <path d="M34 220C86 172 130 144 192 128C237 116 304 100 404 72" stroke="#67E8F9" stroke-opacity="0.24" stroke-width="18" stroke-linecap="round"/>
  <path d="M26 84C62 102 88 120 126 154" stroke="#A78BFA" stroke-opacity="0.24" stroke-width="12" stroke-linecap="round"/>

  <rect x="38" y="40" width="160" height="160" rx="38" fill="url(#panel)"/>
  <rect x="38" y="40" width="160" height="160" rx="38" stroke="#FFFFFF" stroke-opacity="0.16"/>
  <ellipse cx="118" cy="172" rx="46" ry="14" fill="#0F172A" fill-opacity="0.26"/>
  <rect x="74" y="70" width="88" height="110" rx="32" fill="url(#car)"/>
  <rect x="84" y="82" width="68" height="44" rx="18" fill="#BFDBFE"/>
  <rect x="91" y="88" width="18" height="24" rx="8" fill="#E0F2FE"/>
  <rect x="127" y="88" width="18" height="24" rx="8" fill="#DBEAFE"/>
  <path d="M100 138C105 146 131 146 136 138" stroke="#FDE68A" stroke-width="7" stroke-linecap="round"/>
  <rect x="74" y="122" width="14" height="34" rx="7" fill="#F59E0B"/>
  <rect x="148" y="122" width="14" height="34" rx="7" fill="#F59E0B"/>
  <circle cx="81" cy="138" r="4" fill="#FFF7ED"/>
  <circle cx="155" cy="138" r="4" fill="#FFF7ED"/>
  <circle cx="166" cy="70" r="18" fill="#FBBF24"/>
  <path d="M166 60V80" stroke="#7C2D12" stroke-width="5" stroke-linecap="round"/>
  <path d="M156 70H176" stroke="#7C2D12" stroke-width="5" stroke-linecap="round"/>

  <text x="224" y="102" fill="#F8FAFC" font-size="36" font-weight="800" font-family="Arial, sans-serif">DOM Racer</text>
  <text x="224" y="132" fill="#BFDBFE" font-size="16" font-weight="600" font-family="Arial, sans-serif">Turn page elements into a playful racer.</text>

  <rect x="224" y="156" width="90" height="32" rx="16" fill="#111827" fill-opacity="0.52" stroke="#FFFFFF" stroke-opacity="0.12"/>
  <text x="239" y="177" fill="#FDE68A" font-size="13" font-weight="700" font-family="Arial, sans-serif">LINK LOOT</text>

  <rect x="320" y="156" width="104" height="32" rx="16" fill="#111827" fill-opacity="0.52" stroke="#FFFFFF" stroke-opacity="0.12"/>
  <text x="336" y="177" fill="#BFDBFE" font-size="13" font-weight="700" font-family="Arial, sans-serif">BUTTON BONUS</text>

  <rect x="224" y="198" width="84" height="32" rx="16" fill="#111827" fill-opacity="0.52" stroke="#FFFFFF" stroke-opacity="0.12"/>
  <text x="243" y="219" fill="#FCA5A5" font-size="13" font-weight="700" font-family="Arial, sans-serif">POLICE</text>

  <rect x="316" y="198" width="108" height="32" rx="16" fill="#111827" fill-opacity="0.52" stroke="#FFFFFF" stroke-opacity="0.12"/>
  <text x="336" y="219" fill="#86EFAC" font-size="13" font-weight="700" font-family="Arial, sans-serif">COLOR POWERS</text>
</svg>
