<svg width="1280" height="800" viewBox="0 0 1280 800" fill="none" xmlns="http://www.w3.org/2000/svg">
  <!-- Pixel-art background: 8 stepped horizontal bands (dark → indigo → teal) -->
  <rect x="0" y="0"   width="1280" height="100" fill="#020617"/>
  <rect x="0" y="100" width="1280" height="100" fill="#070820"/>
  <rect x="0" y="200" width="1280" height="100" fill="#0d0c2c"/>
  <rect x="0" y="300" width="1280" height="100" fill="#151339"/>
  <rect x="0" y="400" width="1280" height="100" fill="#1e1b4b"/>
  <rect x="0" y="500" width="1280" height="100" fill="#1a2c58"/>
  <rect x="0" y="600" width="1280" height="100" fill="#124c6c"/>
  <rect x="0" y="700" width="1280" height="100" fill="#0e7490"/>

  <!-- Pixel-art "DOM" (5-wide letters, gap 2, scale 24) -->
  <g fill="#f8fafc" transform="translate(412, 200) scale(24)">
    <rect x="0" y="0" width="4" height="1"/>
    <rect x="0" y="1" width="1" height="3"/>
    <rect x="4" y="1" width="1" height="3"/>
    <rect x="0" y="4" width="4" height="1"/>
    <rect x="8" y="0" width="3" height="1"/>
    <rect x="7" y="1" width="1" height="3"/>
    <rect x="11" y="1" width="1" height="3"/>
    <rect x="8" y="4" width="3" height="1"/>
    <rect x="14" y="0" width="1" height="5"/>
    <rect x="18" y="0" width="1" height="5"/>
    <rect x="15" y="1" width="1" height="1"/>
    <rect x="17" y="1" width="1" height="1"/>
    <rect x="16" y="2" width="1" height="1"/>
  </g>

  <!-- Pixel-art "RACER" (5-wide letters, gap 1, scale 24) -->
  <g fill="#f8fafc" transform="translate(292, 344) scale(24)">
    <rect x="0" y="0" width="1" height="5"/>
    <rect x="1" y="0" width="3" height="1"/>
    <rect x="4" y="1" width="1" height="1"/>
    <rect x="1" y="2" width="3" height="1"/>
    <rect x="3" y="3" width="1" height="1"/>
    <rect x="4" y="4" width="1" height="1"/>
    <rect x="7" y="0" width="3" height="1"/>
    <rect x="6" y="1" width="1" height="1"/>
    <rect x="10" y="1" width="1" height="1"/>
    <rect x="6" y="2" width="5" height="1"/>
    <rect x="6" y="3" width="1" height="2"/>
    <rect x="10" y="3" width="1" height="2"/>
    <rect x="13" y="0" width="4" height="1"/>
    <rect x="12" y="1" width="1" height="3"/>
    <rect x="13" y="4" width="4" height="1"/>
    <rect x="18" y="0" width="1" height="5"/>
    <rect x="19" y="0" width="4" height="1"/>
    <rect x="19" y="2" width="3" height="1"/>
    <rect x="19" y="4" width="4" height="1"/>
    <rect x="24" y="0" width="1" height="5"/>
    <rect x="25" y="0" width="3" height="1"/>
    <rect x="28" y="1" width="1" height="1"/>
    <rect x="25" y="2" width="3" height="1"/>
    <rect x="27" y="3" width="1" height="1"/>
    <rect x="28" y="4" width="1" height="1"/>
  </g>

  <!-- Pixel subtitle divider -->
  <g fill="#94a3b8" fill-opacity="0.8" transform="translate(340, 510) scale(4)">
    <rect x="0" y="0" width="3" height="3"/>
    <rect x="8" y="0" width="3" height="3"/>
    <rect x="16" y="0" width="3" height="3"/>
    <rect x="24" y="0" width="30" height="3"/>
    <rect x="59" y="0" width="3" height="3"/>
    <rect x="67" y="0" width="3" height="3"/>
    <rect x="75" y="0" width="30" height="3"/>
    <rect x="110" y="0" width="3" height="3"/>
    <rect x="118" y="0" width="3" height="3"/>
    <rect x="126" y="0" width="3" height="3"/>
    <rect x="134" y="0" width="16" height="3"/>
  </g>

  <!-- Single pixel coin (top-right accent) -->
  <g fill="#fbbf24" transform="translate(1020, 280) scale(14)">
    <rect x="1" y="0" width="1" height="1"/>
    <rect x="0" y="1" width="3" height="1"/>
    <rect x="1" y="2" width="1" height="1"/>
  </g>
  <g fill="#fde68a">
    <rect x="1034" y="294" width="14" height="14"/>
  </g>

  <!-- Pixel speed lines -->
  <g fill="#67e8f9" fill-opacity="0.25">
    <rect x="90" y="370" width="56" height="6"/>
    <rect x="70" y="392" width="84" height="6"/>
    <rect x="100" y="414" width="48" height="6"/>
  </g>

  <!-- Pixel road stripe at bottom -->
  <g fill="#475569" fill-opacity="0.3">
    <rect x="200" y="720" width="40" height="8"/>
    <rect x="280" y="720" width="40" height="8"/>
    <rect x="360" y="720" width="40" height="8"/>
    <rect x="440" y="720" width="40" height="8"/>
    <rect x="520" y="720" width="40" height="8"/>
    <rect x="600" y="720" width="40" height="8"/>
    <rect x="680" y="720" width="40" height="8"/>
    <rect x="760" y="720" width="40" height="8"/>
    <rect x="840" y="720" width="40" height="8"/>
    <rect x="920" y="720" width="40" height="8"/>
    <rect x="1000" y="720" width="40" height="8"/>
  </g>
</svg>
