<svg width="1280" height="800" viewBox="0 0 1280 800" fill="none" xmlns="http://www.w3.org/2000/svg">
  <defs>
    <linearGradient id="bg" x1="84" y1="64" x2="1180" y2="756" gradientUnits="userSpaceOnUse">
      <stop stop-color="#020617"/>
      <stop offset="0.48" stop-color="#312E81"/>
      <stop offset="1" stop-color="#0891B2"/>
    </linearGradient>
    <linearGradient id="browser" x1="152" y1="140" x2="1120" y2="658" gradientUnits="userSpaceOnUse">
      <stop stop-color="#0F172A"/>
      <stop offset="1" stop-color="#111827"/>
    </linearGradient>
    <linearGradient id="arena" x1="220" y1="186" x2="1048" y2="610" gradientUnits="userSpaceOnUse">
      <stop stop-color="#111827"/>
      <stop offset="1" stop-color="#1E293B"/>
    </linearGradient>
    <linearGradient id="card" x1="0" y1="0" x2="1" y2="1">
      <stop stop-color="#1F2937"/>
      <stop offset="1" stop-color="#0F172A"/>
    </linearGradient>
    <pattern id="grid" width="38" height="38" patternUnits="userSpaceOnUse">
      <path d="M38 0H0V38" stroke="#FFFFFF" stroke-opacity="0.06" stroke-width="1.5"/>
    </pattern>
  </defs>

  <rect width="1280" height="800" fill="url(#bg)"/>
  <path d="M72 648C252 548 386 454 574 420C796 380 1010 430 1214 600" stroke="#67E8F9" stroke-opacity="0.14" stroke-width="28" stroke-linecap="round"/>
  <path d="M138 120C344 172 452 260 630 400" stroke="#A78BFA" stroke-opacity="0.14" stroke-width="18" stroke-linecap="round"/>

  <rect x="140" y="114" width="1000" height="560" rx="34" fill="url(#browser)" stroke="#FFFFFF" stroke-opacity="0.12" stroke-width="2"/>
  <rect x="140" y="114" width="1000" height="58" rx="34" fill="#0B1120"/>
  <circle cx="178" cy="143" r="8" fill="#FB7185"/>
  <circle cx="206" cy="143" r="8" fill="#FBBF24"/>
  <circle cx="234" cy="143" r="8" fill="#34D399"/>
  <rect x="274" y="130" width="326" height="26" rx="13" fill="#111827" stroke="#FFFFFF" stroke-opacity="0.08"/>
  <text x="304" y="147" fill="#94A3B8" font-size="14" font-weight="600" font-family="Arial, sans-serif">https://example.com</text>

  <rect x="176" y="186" width="928" height="452" rx="26" fill="url(#arena)"/>
  <rect x="176" y="186" width="928" height="452" rx="26" fill="url(#grid)"/>

  <rect x="214" y="220" width="150" height="86" rx="22" fill="url(#card)" stroke="#FFFFFF" stroke-opacity="0.08"/>
  <text x="238" y="256" fill="#E2E8F0" font-size="19" font-weight="800" font-family="Arial, sans-serif">TIME 01:28</text>
  <text x="238" y="286" fill="#FDE68A" font-size="18" font-weight="700" font-family="Arial, sans-serif">SCORE 170</text>

  <rect x="882" y="216" width="178" height="124" rx="22" fill="url(#card)" stroke="#FFFFFF" stroke-opacity="0.08"/>
  <text x="906" y="250" fill="#BFDBFE" font-size="18" font-weight="800" font-family="Arial, sans-serif">POWERS</text>
  <rect x="906" y="268" width="132" height="18" rx="9" fill="#111827"/>
  <rect x="906" y="268" width="108" height="18" rx="9" fill="#22D3EE"/>
  <text x="906" y="310" fill="#FCA5A5" font-size="16" font-weight="700" font-family="Arial, sans-serif">BLACKOUT 04s</text>

  <rect x="894" y="530" width="166" height="74" rx="22" fill="url(#card)" stroke="#FFFFFF" stroke-opacity="0.08"/>
  <text x="918" y="560" fill="#E2E8F0" font-size="16" font-weight="800" font-family="Arial, sans-serif">PAGE BEST 240</text>
  <text x="918" y="586" fill="#94A3B8" font-size="14" font-weight="700" font-family="Arial, sans-serif">LIFE BEST 780</text>

  <rect x="252" y="336" width="128" height="76" rx="20" fill="#111827" stroke="#A78BFA" stroke-opacity="0.26"/>
  <text x="284" y="381" fill="#E9D5FF" font-size="18" font-weight="700" font-family="Arial, sans-serif">&lt;div&gt;</text>
  <rect x="414" y="268" width="204" height="42" rx="21" fill="#1F2937" stroke="#FCD34D" stroke-opacity="0.26"/>
  <text x="456" y="295" fill="#FDE68A" font-size="16" font-weight="700" font-family="Arial, sans-serif">Link loot</text>
  <rect x="824" y="384" width="112" height="48" rx="18" fill="#1E3A8A" stroke="#93C5FD" stroke-opacity="0.42"/>
  <text x="844" y="414" fill="#DBEAFE" font-size="16" font-weight="700" font-family="Arial, sans-serif">Button</text>
  <rect x="458" y="468" width="164" height="98" rx="22" fill="#0F172A" stroke="#67E8F9" stroke-opacity="0.26"/>
  <text x="496" y="522" fill="#A5F3FC" font-size="18" font-weight="700" font-family="Arial, sans-serif">Boost zone</text>

  <!-- Coin pickup -->
  <circle cx="810" cy="272" r="24" fill="#FBBF24"/>
  <circle cx="810" cy="272" r="17" fill="#FDE68A"/>
  <path d="M810 258V286" stroke="#7C2D12" stroke-width="7" stroke-linecap="round"/>
  <path d="M796 272H824" stroke="#7C2D12" stroke-width="7" stroke-linecap="round"/>

  <!-- Blue coupe (top-down, matching in-game sprite) -->
  <ellipse cx="694" cy="530" rx="68" ry="18" fill="#020617" fill-opacity="0.34"/>

  <!-- Wheels -->
  <rect x="630" y="306" width="24" height="12" rx="4" fill="#111827"/>
  <rect x="630" y="306" width="24" height="12" rx="4" stroke="#F8FAFC" stroke-width="3"/>
  <rect x="736" y="306" width="24" height="12" rx="4" fill="#111827"/>
  <rect x="736" y="306" width="24" height="12" rx="4" stroke="#F8FAFC" stroke-width="3"/>
  <rect x="630" y="476" width="24" height="12" rx="4" fill="#111827"/>
  <rect x="630" y="476" width="24" height="12" rx="4" stroke="#F8FAFC" stroke-width="3"/>
  <rect x="736" y="476" width="24" height="12" rx="4" fill="#111827"/>
  <rect x="736" y="476" width="24" height="12" rx="4" stroke="#F8FAFC" stroke-width="3"/>

  <!-- Body -->
  <rect x="638" y="296" width="112" height="200" rx="44" fill="#2563EB"/>
  <rect x="638" y="296" width="112" height="200" rx="44" stroke="#F8FAFC" stroke-width="5"/>

  <!-- Roof accent -->
  <rect x="664" y="284" width="62" height="224" rx="26" fill="#1D4ED8"/>
  <rect x="664" y="284" width="62" height="224" rx="26" stroke="#F8FAFC" stroke-width="3.5"/>

  <!-- Windshield stripe -->
  <rect x="654" y="388" width="82" height="22" rx="4" fill="#E2E8F0"/>

  <!-- Side windows -->
  <rect x="674" y="338" width="42" height="112" rx="14" fill="#DBEAFE"/>

  <!-- Headlights -->
  <rect x="660" y="306" width="14" height="14" rx="3" fill="#111827"/>
  <rect x="716" y="306" width="14" height="14" rx="3" fill="#111827"/>

  <!-- Taillights -->
  <rect x="660" y="478" width="14" height="14" rx="3" fill="#7F1D1D"/>
  <rect x="716" y="478" width="14" height="14" rx="3" fill="#7F1D1D"/>

  <!-- Body keyline -->
  <rect x="638" y="296" width="112" height="200" rx="44" stroke="rgba(15, 23, 42, 0.85)" stroke-width="3" fill="none"/>

  <!-- Police warning -->
  <path d="M1024 422L1088 394" stroke="#FCA5A5" stroke-width="10" stroke-linecap="round"/>
  <path d="M1034 398L1088 394L1056 442" stroke="#FCA5A5" stroke-width="10" stroke-linecap="round" stroke-linejoin="round"/>
  <text x="928" y="448" fill="#FCA5A5" font-size="20" font-weight="800" font-family="Arial, sans-serif">WEE-OO</text>

  <text x="140" y="734" fill="#F8FAFC" font-size="54" font-weight="900" font-family="Arial, sans-serif">DOM Racer</text>
  <text x="140" y="772" fill="#BFDBFE" font-size="24" font-weight="600" font-family="Arial, sans-serif">A playful page-overlay racer with loot, powers, and police chases.</text>

  <g fill="#FFFFFF">
    <path d="M1090 106L1102 138L1134 150L1102 162L1090 194L1078 162L1046 150L1078 138L1090 106Z" fill-opacity="0.82"/>
    <path d="M1182 234L1192 258L1216 268L1192 278L1182 302L1172 278L1148 268L1172 258L1182 234Z" fill-opacity="0.66"/>
  </g>
</svg>
