<svg width="1024" height="1024" viewBox="0 0 1024 1024" fill="none" xmlns="http://www.w3.org/2000/svg">
  <defs>
    <clipPath id="bg-clip">
      <rect x="72" y="72" width="880" height="880" rx="220"/>
    </clipPath>
    <pattern id="grid" width="110" height="110" patternUnits="userSpaceOnUse" x="72" y="72">
      <path d="M110 0H0V110" stroke="#fff" stroke-opacity="0.07" stroke-width="1.5"/>
    </pattern>
  </defs>

  <!-- Pixel-art background: 8 horizontal stepped bands (dark → teal), matching store cover -->
  <g clip-path="url(#bg-clip)">
    <rect x="72" y="72"  width="880" height="110" fill="#020617"/>
    <rect x="72" y="182" width="880" height="110" fill="#070820"/>
    <rect x="72" y="292" width="880" height="110" fill="#0d0c2c"/>
    <rect x="72" y="402" width="880" height="110" fill="#151339"/>
    <rect x="72" y="512" width="880" height="110" fill="#1e1b4b"/>
    <rect x="72" y="622" width="880" height="110" fill="#1a2c58"/>
    <rect x="72" y="732" width="880" height="110" fill="#124c6c"/>
    <rect x="72" y="842" width="880" height="110" fill="#0e7490"/>
  </g>

  <rect x="72" y="72" width="880" height="880" rx="220" fill="url(#grid)"/>

  <!-- Pixel-art "DR" monogram -->
  <g fill="#f8fafc" transform="translate(112, 272) scale(80)">
    <rect x="0" y="0" width="4" height="1"/>
    <rect x="0" y="1" width="1" height="3"/>
    <rect x="4" y="1" width="1" height="3"/>
    <rect x="0" y="4" width="4" height="1"/>
    <rect x="6" y="0" width="1" height="5"/>
    <rect x="7" y="0" width="3" height="1"/>
    <rect x="10" y="1" width="1" height="1"/>
    <rect x="7" y="2" width="3" height="1"/>
    <rect x="9" y="3" width="1" height="1"/>
    <rect x="10" y="4" width="1" height="1"/>
  </g>

  <!-- Pixel coin (diamond shape) -->
  <g fill="#fbbf24" transform="translate(730, 700) scale(32)">
    <rect x="2" y="0" width="1" height="1"/>
    <rect x="1" y="1" width="3" height="1"/>
    <rect x="0" y="2" width="5" height="1"/>
    <rect x="1" y="3" width="3" height="1"/>
    <rect x="2" y="4" width="1" height="1"/>
  </g>
  <g fill="#fde68a" transform="translate(730, 700) scale(32)">
    <rect x="2" y="1" width="1" height="1"/>
    <rect x="1" y="2" width="2" height="1"/>
  </g>

  <!-- Pixel sparkles -->
  <g fill="#fff">
    <rect x="248" y="216" width="28" height="28" fill-opacity="0.75"/>
    <rect x="192" y="560" width="18" height="18" fill-opacity="0.5"/>
    <rect x="840" y="560" width="22" height="22" fill-opacity="0.6"/>
    <rect x="300" y="780" width="14" height="14" fill-opacity="0.4"/>
  </g>

  <rect x="84" y="84" width="856" height="856" rx="210" stroke="#fff" stroke-opacity="0.14" stroke-width="6" fill="none"/>
</svg>
